<svg width="12" height="22" viewBox="0 0 12 22" fill="none" xmlns="http://www.w3.org/2000/svg">
<path d="M2.20388 21.1339C1.92224 21.1344 1.64631 21.0545 1.40845 20.9037C1.17059 20.7529 0.980679 20.5374 0.860981 20.2824C0.741283 20.0275 0.696766 19.7437 0.732653 19.4643C0.768541 19.185 0.883343 18.9217 1.06359 18.7053L7.69799 10.7677L1.30054 2.81531C1.17753 2.66383 1.08566 2.48953 1.03023 2.30244C0.9748 2.11534 0.95689 1.91914 0.977533 1.7251C0.998175 1.53106 1.05696 1.34301 1.15052 1.17177C1.24407 1.00052 1.37054 0.849456 1.52267 0.727248C1.67589 0.592433 1.85533 0.490744 2.04971 0.428563C2.2441 0.366382 2.44924 0.345051 2.65226 0.365909C2.85528 0.386767 3.05179 0.449364 3.22948 0.549771C3.40716 0.650178 3.56217 0.786228 3.68477 0.949382L10.8375 9.83473C11.0553 10.0997 11.1744 10.4321 11.1744 10.7751C11.1744 11.1181 11.0553 11.4505 10.8375 11.7155L3.43302 20.6008C3.28454 20.7801 3.09584 20.9219 2.88226 21.0145C2.66868 21.1071 2.43626 21.148 2.20388 21.1339Z" fill="black"/>
</svg>
