<svg width="113" height="43" viewBox="0 0 113 43" fill="none" xmlns="http://www.w3.org/2000/svg">
<path d="M3.552 36.176V35.144L7.584 29.36H9.24V34.988H10.356V36.176H9.24V38H7.896V36.176H3.552ZM7.956 30.752L5.124 34.988H7.956V30.752ZM12.2215 38.084C11.9735 38.084 11.7655 38 11.5975 37.832C11.4295 37.664 11.3455 37.456 11.3455 37.208C11.3455 36.96 11.4295 36.752 11.5975 36.584C11.7655 36.416 11.9735 36.332 12.2215 36.332C12.4615 36.332 12.6655 36.416 12.8335 36.584C13.0015 36.752 13.0855 36.96 13.0855 37.208C13.0855 37.456 13.0015 37.664 12.8335 37.832C12.6655 38 12.4615 38.084 12.2215 38.084ZM15.8601 33.428C15.0281 33.012 14.6121 32.356 14.6121 31.46C14.6121 31.028 14.7201 30.632 14.9361 30.272C15.1521 29.912 15.4761 29.628 15.9081 29.42C16.3401 29.204 16.8681 29.096 17.4921 29.096C18.1081 29.096 18.6321 29.204 19.0641 29.42C19.5041 29.628 19.8321 29.912 20.0481 30.272C20.2641 30.632 20.3721 31.028 20.3721 31.46C20.3721 31.908 20.2561 32.304 20.0241 32.648C19.8001 32.984 19.5001 33.244 19.1241 33.428C19.5801 33.596 19.9401 33.872 20.2041 34.256C20.4681 34.632 20.6001 35.076 20.6001 35.588C20.6001 36.108 20.4681 36.568 20.2041 36.968C19.9401 37.368 19.5721 37.676 19.1001 37.892C18.6281 38.108 18.0921 38.216 17.4921 38.216C16.8921 38.216 16.3561 38.108 15.8841 37.892C15.4201 37.676 15.0561 37.368 14.7921 36.968C14.5281 36.568 14.3961 36.108 14.3961 35.588C14.3961 35.068 14.5281 34.62 14.7921 34.244C15.0561 33.868 15.4121 33.596 15.8601 33.428ZM19.0641 31.628C19.0641 31.18 18.9241 30.836 18.6441 30.596C18.3641 30.356 17.9801 30.236 17.4921 30.236C17.0121 30.236 16.6321 30.356 16.3521 30.596C16.0721 30.836 15.9321 31.184 15.9321 31.64C15.9321 32.04 16.0761 32.368 16.3641 32.624C16.6601 32.872 17.0361 32.996 17.4921 32.996C17.9481 32.996 18.3241 32.868 18.6201 32.612C18.9161 32.356 19.0641 32.028 19.0641 31.628ZM17.4921 34.028C16.9641 34.028 16.5321 34.16 16.1961 34.424C15.8681 34.68 15.7041 35.052 15.7041 35.54C15.7041 35.996 15.8641 36.368 16.1841 36.656C16.5041 36.936 16.9401 37.076 17.4921 37.076C18.0361 37.076 18.4641 36.932 18.7761 36.644C19.0961 36.356 19.2561 35.988 19.2561 35.54C19.2561 35.06 19.0921 34.688 18.7641 34.424C18.4441 34.16 18.0201 34.028 17.4921 34.028ZM28.3576 40.232C27.5736 39.48 26.9696 38.524 26.5456 37.364C26.1296 36.204 25.9216 34.96 25.9216 33.632C25.9216 32.272 26.1456 30.988 26.5936 29.78C27.0496 28.572 27.7176 27.576 28.5976 26.792H30.0136V26.924C29.0936 27.772 28.4016 28.788 27.9376 29.972C27.4736 31.156 27.2416 32.376 27.2416 33.632C27.2416 34.84 27.4576 36.008 27.8896 37.136C28.3216 38.264 28.9496 39.252 29.7736 40.1V40.232H28.3576ZM30.8798 30.5V29.252H33.3758V38H31.9958V30.5H30.8798ZM35.2552 33.512C35.2552 32.128 35.4872 31.048 35.9512 30.272C36.4232 29.488 37.2312 29.096 38.3752 29.096C39.5192 29.096 40.3232 29.488 40.7872 30.272C41.2592 31.048 41.4952 32.128 41.4952 33.512C41.4952 34.912 41.2592 36.008 40.7872 36.8C40.3232 37.584 39.5192 37.976 38.3752 37.976C37.2312 37.976 36.4232 37.584 35.9512 36.8C35.4872 36.008 35.2552 34.912 35.2552 33.512ZM40.1512 33.512C40.1512 32.864 40.1072 32.316 40.0192 31.868C39.9392 31.42 39.7712 31.056 39.5152 30.776C39.2592 30.488 38.8792 30.344 38.3752 30.344C37.8712 30.344 37.4912 30.488 37.2352 30.776C36.9792 31.056 36.8072 31.42 36.7192 31.868C36.6392 32.316 36.5992 32.864 36.5992 33.512C36.5992 34.184 36.6392 34.748 36.7192 35.204C36.7992 35.66 36.9672 36.028 37.2232 36.308C37.4872 36.588 37.8712 36.728 38.3752 36.728C38.8792 36.728 39.2592 36.588 39.5152 36.308C39.7792 36.028 39.9512 35.66 40.0312 35.204C40.1112 34.748 40.1512 34.184 40.1512 33.512ZM42.7747 36.176V35.144L46.8067 29.36H48.4627V34.988H49.5787V36.176H48.4627V38H47.1187V36.176H42.7747ZM47.1787 30.752L44.3467 34.988H47.1787V30.752ZM50.7122 33.512C50.7122 32.128 50.9442 31.048 51.4082 30.272C51.8802 29.488 52.6882 29.096 53.8322 29.096C54.9762 29.096 55.7802 29.488 56.2442 30.272C56.7162 31.048 56.9522 32.128 56.9522 33.512C56.9522 34.912 56.7162 36.008 56.2442 36.8C55.7802 37.584 54.9762 37.976 53.8322 37.976C52.6882 37.976 51.8802 37.584 51.4082 36.8C50.9442 36.008 50.7122 34.912 50.7122 33.512ZM55.6082 33.512C55.6082 32.864 55.5642 32.316 55.4762 31.868C55.3962 31.42 55.2282 31.056 54.9722 30.776C54.7162 30.488 54.3362 30.344 53.8322 30.344C53.3282 30.344 52.9482 30.488 52.6922 30.776C52.4362 31.056 52.2642 31.42 52.1762 31.868C52.0962 32.316 52.0562 32.864 52.0562 33.512C52.0562 34.184 52.0962 34.748 52.1762 35.204C52.2562 35.66 52.4242 36.028 52.6802 36.308C52.9442 36.588 53.3282 36.728 53.8322 36.728C54.3362 36.728 54.7162 36.588 54.9722 36.308C55.2362 36.028 55.4082 35.66 55.4882 35.204C55.5682 34.748 55.6082 34.184 55.6082 33.512ZM63.0649 32.348C63.2649 32.012 63.5289 31.752 63.8569 31.568C64.1929 31.376 64.5889 31.28 65.0449 31.28V32.696H64.6969C64.1609 32.696 63.7529 32.832 63.4729 33.104C63.2009 33.376 63.0649 33.848 63.0649 34.52V38H61.6969V31.388H63.0649V32.348ZM72.3623 34.532C72.3623 34.78 72.3463 35.004 72.3143 35.204H67.2623C67.3023 35.732 67.4983 36.156 67.8503 36.476C68.2023 36.796 68.6343 36.956 69.1463 36.956C69.8823 36.956 70.4023 36.648 70.7063 36.032H72.1823C71.9823 36.64 71.6183 37.14 71.0903 37.532C70.5703 37.916 69.9223 38.108 69.1463 38.108C68.5143 38.108 67.9463 37.968 67.4423 37.688C66.9463 37.4 66.5543 37 66.2663 36.488C65.9863 35.968 65.8463 35.368 65.8463 34.688C65.8463 34.008 65.9823 33.412 66.2543 32.9C66.5343 32.38 66.9223 31.98 67.4183 31.7C67.9223 31.42 68.4983 31.28 69.1463 31.28C69.7703 31.28 70.3263 31.416 70.8143 31.688C71.3023 31.96 71.6823 32.344 71.9543 32.84C72.2263 33.328 72.3623 33.892 72.3623 34.532ZM70.9343 34.1C70.9263 33.596 70.7463 33.192 70.3943 32.888C70.0423 32.584 69.6063 32.432 69.0863 32.432C68.6143 32.432 68.2103 32.584 67.8743 32.888C67.5383 33.184 67.3383 33.588 67.2743 34.1H70.9343ZM76.2646 36.776L78.1366 31.388H79.5886L77.0686 38H75.4366L72.9286 31.388H74.3926L76.2646 36.776ZM81.3187 30.512C81.0707 30.512 80.8627 30.428 80.6947 30.26C80.5267 30.092 80.4427 29.884 80.4427 29.636C80.4427 29.388 80.5267 29.18 80.6947 29.012C80.8627 28.844 81.0707 28.76 81.3187 28.76C81.5587 28.76 81.7627 28.844 81.9307 29.012C82.0987 29.18 82.1827 29.388 82.1827 29.636C82.1827 29.884 82.0987 30.092 81.9307 30.26C81.7627 30.428 81.5587 30.512 81.3187 30.512ZM81.9907 31.388V38H80.6227V31.388H81.9907ZM89.8467 34.532C89.8467 34.78 89.8307 35.004 89.7987 35.204H84.7467C84.7867 35.732 84.9827 36.156 85.3347 36.476C85.6867 36.796 86.1187 36.956 86.6307 36.956C87.3667 36.956 87.8867 36.648 88.1907 36.032H89.6667C89.4667 36.64 89.1027 37.14 88.5747 37.532C88.0547 37.916 87.4067 38.108 86.6307 38.108C85.9987 38.108 85.4307 37.968 84.9267 37.688C84.4307 37.4 84.0387 37 83.7507 36.488C83.4707 35.968 83.3307 35.368 83.3307 34.688C83.3307 34.008 83.4667 33.412 83.7387 32.9C84.0187 32.38 84.4067 31.98 84.9027 31.7C85.4067 31.42 85.9827 31.28 86.6307 31.28C87.2547 31.28 87.8107 31.416 88.2987 31.688C88.7867 31.96 89.1667 32.344 89.4387 32.84C89.7107 33.328 89.8467 33.892 89.8467 34.532ZM88.4187 34.1C88.4107 33.596 88.2307 33.192 87.8787 32.888C87.5267 32.584 87.0907 32.432 86.5707 32.432C86.0987 32.432 85.6947 32.584 85.3587 32.888C85.0227 33.184 84.8227 33.588 84.7587 34.1H88.4187ZM100.073 31.388L98.021 38H96.581L95.249 33.116L93.917 38H92.477L90.413 31.388H91.805L93.185 36.704L94.589 31.388H96.017L97.361 36.68L98.729 31.388H100.073ZM103.495 38.108C102.975 38.108 102.507 38.016 102.091 37.832C101.683 37.64 101.359 37.384 101.119 37.064C100.879 36.736 100.751 36.372 100.735 35.972H102.151C102.175 36.252 102.307 36.488 102.547 36.68C102.795 36.864 103.103 36.956 103.471 36.956C103.855 36.956 104.151 36.884 104.359 36.74C104.575 36.588 104.683 36.396 104.683 36.164C104.683 35.916 104.563 35.732 104.323 35.612C104.091 35.492 103.719 35.36 103.207 35.216C102.711 35.08 102.307 34.948 101.995 34.82C101.683 34.692 101.411 34.496 101.179 34.232C100.955 33.968 100.843 33.62 100.843 33.188C100.843 32.836 100.947 32.516 101.155 32.228C101.363 31.932 101.659 31.7 102.043 31.532C102.435 31.364 102.883 31.28 103.387 31.28C104.139 31.28 104.743 31.472 105.199 31.856C105.663 32.232 105.911 32.748 105.943 33.404H104.575C104.551 33.108 104.431 32.872 104.215 32.696C103.999 32.52 103.707 32.432 103.339 32.432C102.979 32.432 102.703 32.5 102.511 32.636C102.319 32.772 102.223 32.952 102.223 33.176C102.223 33.352 102.287 33.5 102.415 33.62C102.543 33.74 102.699 33.836 102.883 33.908C103.067 33.972 103.339 34.056 103.699 34.16C104.179 34.288 104.571 34.42 104.875 34.556C105.187 34.684 105.455 34.876 105.679 35.132C105.903 35.388 106.019 35.728 106.027 36.152C106.027 36.528 105.923 36.864 105.715 37.16C105.507 37.456 105.211 37.688 104.827 37.856C104.451 38.024 104.007 38.108 103.495 38.108ZM107.169 40.232V40.1C107.993 39.252 108.621 38.264 109.053 37.136C109.485 36.008 109.701 34.84 109.701 33.632C109.701 32.376 109.469 31.156 109.005 29.972C108.541 28.788 107.849 27.772 106.929 26.924V26.792H108.345C109.225 27.576 109.889 28.572 110.337 29.78C110.793 30.988 111.021 32.272 111.021 33.632C111.021 34.96 110.809 36.204 110.385 37.364C109.969 38.524 109.369 39.48 108.585 40.232H107.169Z" fill="#9F9F9F"/>
<path d="M85.4301 11.9359L84.1884 17.3126C84.15 17.4754 84.1615 17.646 84.2216 17.8022C84.2816 17.9583 84.3873 18.0927 84.5249 18.1878C84.6625 18.283 84.8256 18.3344 84.9929 18.3354C85.1602 18.3364 85.3239 18.2869 85.4626 18.1934L90.0001 15.1684L94.5376 18.1934C94.6796 18.2877 94.847 18.3362 95.0173 18.3324C95.1876 18.3287 95.3528 18.2729 95.4904 18.1725C95.6281 18.0721 95.7318 17.932 95.7874 17.771C95.8431 17.6099 95.8481 17.4357 95.8018 17.2718L94.2776 11.9384L98.0576 8.53675C98.1787 8.42774 98.2651 8.28564 98.3063 8.12801C98.3474 7.97038 98.3415 7.80415 98.2892 7.64987C98.2369 7.49559 98.1405 7.36002 98.0119 7.25994C97.8834 7.15985 97.7283 7.09964 97.5659 7.08675L92.8151 6.70842L90.7593 2.15758C90.6937 2.01105 90.5872 1.88661 90.4524 1.7993C90.3177 1.71199 90.1606 1.66553 90.0001 1.66553C89.8396 1.66553 89.6825 1.71199 89.5478 1.7993C89.4131 1.88661 89.3065 2.01105 89.2409 2.15758L87.1851 6.70842L82.4343 7.08592C82.2746 7.09856 82.1221 7.15693 81.9947 7.25403C81.8674 7.35113 81.7708 7.48285 81.7163 7.63344C81.6619 7.78403 81.6521 7.94711 81.6879 8.10317C81.7237 8.25923 81.8038 8.40166 81.9184 8.51342L85.4301 11.9359ZM87.8076 8.33092C87.9563 8.3192 88.0992 8.26768 88.2212 8.18176C88.3432 8.09584 88.4398 7.97869 88.5009 7.84258L90.0001 4.52508L91.4993 7.84258C91.5604 7.97869 91.657 8.09584 91.779 8.18176C91.901 8.26768 92.0439 8.3192 92.1926 8.33092L95.5026 8.59342L92.7768 11.0468C92.5401 11.2601 92.4459 11.5884 92.5326 11.8951L93.5768 15.5493L90.4634 13.4734C90.3268 13.3817 90.1659 13.3327 90.0014 13.3327C89.8368 13.3327 89.6759 13.3817 89.5393 13.4734L86.2859 15.6426L87.1609 11.8543C87.193 11.7149 87.1887 11.5697 87.1484 11.4325C87.1082 11.2953 87.0333 11.1708 86.9309 11.0709L84.3993 8.60258L87.8076 8.33092Z" fill="#FF743C"/>
<line x1="89.6667" y1="4.16675" x2="89.6667" y2="14.1667" stroke="#FF743C"/>
<line x1="88.8333" y1="5.83325" x2="88.8333" y2="14.9999" stroke="#FF743C"/>
<line x1="88" y1="7.5" x2="88" y2="15.8333" stroke="#FF743C"/>
<line x1="87.1667" y1="7.5" x2="87.1667" y2="15.8333" stroke="#FF743C"/>
<line x1="86.3333" y1="8.33325" x2="86.3333" y2="15.8333" stroke="#FF743C"/>
<line x1="85.5" y1="8.33325" x2="85.5" y2="9.99992" stroke="#FF743C"/>
<line x1="84.6667" y1="8.33325" x2="84.6667" y2="9.16659" stroke="#FF743C"/>
<path d="M18.2893 7.64918C18.2369 7.4949 18.1405 7.35934 18.0119 7.25923C17.8834 7.15912 17.7283 7.09884 17.5659 7.08584L12.8151 6.70834L10.7593 2.15751C10.6938 2.01094 10.5873 1.88645 10.4526 1.79906C10.318 1.71167 10.1609 1.66513 10.0004 1.66504C9.83984 1.66495 9.68272 1.71132 9.54796 1.79856C9.4132 1.8858 9.30657 2.01018 9.24094 2.15668L7.1851 6.70834L2.43427 7.08584C2.27465 7.09849 2.12205 7.15685 1.99473 7.25395C1.86741 7.35105 1.77076 7.48278 1.71635 7.63337C1.66193 7.78396 1.65205 7.94704 1.68789 8.1031C1.72373 8.25916 1.80377 8.40158 1.91844 8.51334L5.42927 11.9358L4.1876 17.3125C4.1499 17.4753 4.16198 17.6456 4.22229 17.8014C4.28259 17.9572 4.38832 18.0913 4.52577 18.1862C4.66322 18.2812 4.82604 18.3326 4.99309 18.3339C5.16014 18.3352 5.32372 18.2862 5.4626 18.1933L10.0001 15.1683L14.5376 18.1933C14.6796 18.2876 14.847 18.3361 15.0173 18.3324C15.1876 18.3286 15.3528 18.2728 15.4904 18.1724C15.6281 18.0721 15.7318 17.9319 15.7874 17.7709C15.8431 17.6099 15.8481 17.4356 15.8018 17.2717L14.2776 11.9383L18.0576 8.53668C18.3051 8.31334 18.3959 7.96501 18.2893 7.64918Z" fill="#FF743C"/>
<path d="M38.2893 7.64918C38.2369 7.4949 38.1405 7.35934 38.0119 7.25923C37.8834 7.15912 37.7283 7.09884 37.5659 7.08584L32.8151 6.70834L30.7593 2.15751C30.6938 2.01094 30.5873 1.88645 30.4526 1.79906C30.318 1.71167 30.1609 1.66513 30.0004 1.66504C29.8398 1.66495 29.6827 1.71132 29.548 1.79856C29.4132 1.8858 29.3066 2.01018 29.2409 2.15668L27.1851 6.70834L22.4343 7.08584C22.2746 7.09849 22.1221 7.15685 21.9947 7.25395C21.8674 7.35105 21.7708 7.48278 21.7163 7.63337C21.6619 7.78396 21.6521 7.94704 21.6879 8.1031C21.7237 8.25916 21.8038 8.40158 21.9184 8.51334L25.4293 11.9358L24.1876 17.3125C24.1499 17.4753 24.162 17.6456 24.2223 17.8014C24.2826 17.9572 24.3883 18.0913 24.5258 18.1862C24.6632 18.2812 24.826 18.3326 24.9931 18.3339C25.1601 18.3352 25.3237 18.2862 25.4626 18.1933L30.0001 15.1683L34.5376 18.1933C34.6796 18.2876 34.847 18.3361 35.0173 18.3324C35.1876 18.3286 35.3528 18.2728 35.4904 18.1724C35.6281 18.0721 35.7318 17.9319 35.7874 17.7709C35.8431 17.6099 35.8481 17.4356 35.8018 17.2717L34.2776 11.9383L38.0576 8.53668C38.3051 8.31334 38.3959 7.96501 38.2893 7.64918Z" fill="#FF743C"/>
<path d="M58.2893 7.64918C58.2369 7.4949 58.1405 7.35934 58.0119 7.25923C57.8834 7.15912 57.7283 7.09884 57.5659 7.08584L52.8151 6.70834L50.7593 2.15751C50.6938 2.01094 50.5873 1.88645 50.4526 1.79906C50.318 1.71167 50.1609 1.66513 50.0004 1.66504C49.8398 1.66495 49.6827 1.71132 49.548 1.79856C49.4132 1.8858 49.3066 2.01018 49.2409 2.15668L47.1851 6.70834L42.4343 7.08584C42.2746 7.09849 42.1221 7.15685 41.9947 7.25395C41.8674 7.35105 41.7708 7.48278 41.7163 7.63337C41.6619 7.78396 41.6521 7.94704 41.6879 8.1031C41.7237 8.25916 41.8038 8.40158 41.9184 8.51334L45.4293 11.9358L44.1876 17.3125C44.1499 17.4753 44.162 17.6456 44.2223 17.8014C44.2826 17.9572 44.3883 18.0913 44.5258 18.1862C44.6632 18.2812 44.826 18.3326 44.9931 18.3339C45.1601 18.3352 45.3237 18.2862 45.4626 18.1933L50.0001 15.1683L54.5376 18.1933C54.6796 18.2876 54.847 18.3361 55.0173 18.3324C55.1876 18.3286 55.3528 18.2728 55.4904 18.1724C55.6281 18.0721 55.7318 17.9319 55.7874 17.7709C55.8431 17.6099 55.8481 17.4356 55.8018 17.2717L54.2776 11.9383L58.0576 8.53668C58.3051 8.31334 58.3959 7.96501 58.2893 7.64918Z" fill="#FF743C"/>
<path d="M78.2893 7.64918C78.2369 7.4949 78.1405 7.35934 78.0119 7.25923C77.8834 7.15912 77.7283 7.09884 77.5659 7.08584L72.8151 6.70834L70.7593 2.15751C70.6938 2.01094 70.5873 1.88645 70.4526 1.79906C70.318 1.71167 70.1609 1.66513 70.0004 1.66504C69.8398 1.66495 69.6827 1.71132 69.548 1.79856C69.4132 1.8858 69.3066 2.01018 69.2409 2.15668L67.1851 6.70834L62.4343 7.08584C62.2746 7.09849 62.1221 7.15685 61.9947 7.25395C61.8674 7.35105 61.7708 7.48278 61.7163 7.63337C61.6619 7.78396 61.6521 7.94704 61.6879 8.1031C61.7237 8.25916 61.8038 8.40158 61.9184 8.51334L65.4293 11.9358L64.1876 17.3125C64.1499 17.4753 64.162 17.6456 64.2223 17.8014C64.2826 17.9572 64.3883 18.0913 64.5258 18.1862C64.6632 18.2812 64.826 18.3326 64.9931 18.3339C65.1601 18.3352 65.3237 18.2862 65.4626 18.1933L70.0001 15.1683L74.5376 18.1933C74.6796 18.2876 74.847 18.3361 75.0173 18.3324C75.1876 18.3286 75.3528 18.2728 75.4904 18.1724C75.6281 18.0721 75.7318 17.9319 75.7874 17.7709C75.8431 17.6099 75.8481 17.4356 75.8018 17.2717L74.2776 11.9383L78.0576 8.53668C78.3051 8.31334 78.3959 7.96501 78.2893 7.64918Z" fill="#FF743C"/>
</svg>
