<svg width="28" height="28" viewBox="0 0 28 28" fill="none" xmlns="http://www.w3.org/2000/svg">
<g opacity="0.4">
<path d="M24.8976 1.75H3.10242C2.74378 1.75014 2.39987 1.89268 2.14628 2.14628C1.89268 2.39987 1.75014 2.74378 1.75 3.10242V24.8976C1.75014 25.2562 1.89268 25.6001 2.14628 25.8537C2.39987 26.1073 2.74378 26.2499 3.10242 26.25H14V16.625H11.0715V13.125H14V10.3359C14 7.17172 16.1946 5.44906 19.0214 5.44906C20.3738 5.44906 21.8285 5.55078 22.1665 5.59562V8.90039H19.9145C18.3766 8.90039 18.0835 9.62773 18.0835 10.6996V13.125H21.7476L21.2691 16.625H18.0835V26.25H24.8976C25.2562 26.2499 25.6001 26.1073 25.8537 25.8537C26.1073 25.6001 26.2499 25.2562 26.25 24.8976V3.10242C26.2499 2.74378 26.1073 2.39987 25.8537 2.14628C25.6001 1.89268 25.2562 1.75014 24.8976 1.75Z" fill="#7D3213"/>
</g>
</svg>
