<svg width="22" height="22" viewBox="0 0 22 22" fill="none" xmlns="http://www.w3.org/2000/svg">
<g opacity="0.4">
<path d="M6.31947 17.1529C7.31665 17.1529 8.12503 16.3445 8.12503 15.3473C8.12503 14.3501 7.31665 13.5417 6.31947 13.5417C5.32229 13.5417 4.51392 14.3501 4.51392 15.3473C4.51392 16.3445 5.32229 17.1529 6.31947 17.1529Z" stroke="#050505" stroke-width="0.75" stroke-linecap="round" stroke-linejoin="round"/>
<path d="M15.3473 17.1529C16.3445 17.1529 17.1529 16.3445 17.1529 15.3473C17.1529 14.3501 16.3445 13.5417 15.3473 13.5417C14.3501 13.5417 13.5417 14.3501 13.5417 15.3473C13.5417 16.3445 14.3501 17.1529 15.3473 17.1529Z" stroke="#050505" stroke-width="0.75" stroke-linecap="round" stroke-linejoin="round"/>
<path d="M4.51381 15.3472H2.70825V5.41669C2.70825 5.17726 2.80337 4.94764 2.97267 4.77833C3.14197 4.60903 3.3716 4.51392 3.61103 4.51392H11.736V15.3472H8.12492H13.5416M17.1527 15.3472H18.9583V9.93058M18.9583 9.93058H11.736M18.9583 9.93058L16.2499 5.41669H11.736" stroke="#050505" stroke-width="0.75" stroke-linecap="round" stroke-linejoin="round"/>
</g>
</svg>
