<svg width="59" height="22" viewBox="0 0 59 22" fill="none" xmlns="http://www.w3.org/2000/svg">
<path d="M25.7584 8.25C25.2451 8.25 24.7831 8.18767 24.3724 8.063C23.9618 7.931 23.5694 7.70367 23.1954 7.381C23.1001 7.30033 23.0268 7.20867 22.9754 7.106C22.9241 7.00333 22.8984 6.90067 22.8984 6.798C22.8984 6.62933 22.9571 6.48267 23.0744 6.358C23.1991 6.226 23.3531 6.16 23.5364 6.16C23.6758 6.16 23.8004 6.204 23.9104 6.292C24.1891 6.51933 24.4641 6.69167 24.7354 6.809C25.0141 6.92633 25.3551 6.985 25.7584 6.985C26.0298 6.985 26.2791 6.94467 26.5064 6.864C26.7338 6.776 26.9171 6.66233 27.0564 6.523C27.1958 6.37633 27.2654 6.21133 27.2654 6.028C27.2654 5.808 27.1994 5.621 27.0674 5.467C26.9354 5.313 26.7338 5.18467 26.4624 5.082C26.1911 4.972 25.8464 4.88767 25.4284 4.829C25.0324 4.77033 24.6841 4.68233 24.3834 4.565C24.0828 4.44033 23.8298 4.28633 23.6244 4.103C23.4264 3.91233 23.2761 3.69233 23.1734 3.443C23.0708 3.18633 23.0194 2.90033 23.0194 2.585C23.0194 2.10833 23.1404 1.70133 23.3824 1.364C23.6318 1.02667 23.9654 0.77 24.3834 0.594C24.8014 0.418 25.2634 0.33 25.7694 0.33C26.2461 0.33 26.6861 0.403333 27.0894 0.549999C27.5001 0.689333 27.8338 0.869 28.0904 1.089C28.3031 1.25767 28.4094 1.452 28.4094 1.672C28.4094 1.83333 28.3471 1.98 28.2224 2.112C28.0978 2.244 27.9511 2.31 27.7824 2.31C27.6724 2.31 27.5734 2.277 27.4854 2.211C27.3681 2.10833 27.2104 2.013 27.0124 1.925C26.8144 1.82967 26.6054 1.75267 26.3854 1.694C26.1654 1.628 25.9601 1.595 25.7694 1.595C25.4541 1.595 25.1864 1.63533 24.9664 1.716C24.7538 1.79667 24.5924 1.90667 24.4824 2.046C24.3724 2.18533 24.3174 2.34667 24.3174 2.53C24.3174 2.75 24.3798 2.93333 24.5044 3.08C24.6364 3.21933 24.8234 3.333 25.0654 3.421C25.3074 3.50167 25.5971 3.575 25.9344 3.641C26.3744 3.72167 26.7594 3.817 27.0894 3.927C27.4268 4.037 27.7054 4.18 27.9254 4.356C28.1454 4.52467 28.3104 4.741 28.4204 5.005C28.5304 5.26167 28.5854 5.577 28.5854 5.951C28.5854 6.42767 28.4534 6.83833 28.1894 7.183C27.9254 7.52767 27.5771 7.79167 27.1444 7.975C26.7191 8.15833 26.2571 8.25 25.7584 8.25Z" fill="#333333"/>
<path d="M34.5549 2.145C34.7456 2.145 34.9032 2.20733 35.0279 2.332C35.1526 2.45667 35.2149 2.618 35.2149 2.816V7.469C35.2149 7.65967 35.1526 7.821 35.0279 7.953C34.9032 8.07767 34.7456 8.14 34.5549 8.14C34.3642 8.14 34.2066 8.07767 34.0819 7.953C33.9572 7.821 33.8949 7.65967 33.8949 7.469V6.93L34.1369 7.029C34.1369 7.12433 34.0856 7.24167 33.9829 7.381C33.8802 7.513 33.7409 7.645 33.5649 7.777C33.3889 7.909 33.1799 8.02267 32.9379 8.118C32.7032 8.206 32.4466 8.25 32.1679 8.25C31.6619 8.25 31.2036 8.12167 30.7929 7.865C30.3822 7.601 30.0559 7.24167 29.8139 6.787C29.5792 6.325 29.4619 5.797 29.4619 5.203C29.4619 4.60167 29.5792 4.07367 29.8139 3.619C30.0559 3.157 30.3786 2.79767 30.7819 2.541C31.1852 2.277 31.6326 2.145 32.1239 2.145C32.4392 2.145 32.7289 2.19267 32.9929 2.288C33.2569 2.38333 33.4842 2.50433 33.6749 2.651C33.8729 2.79767 34.0232 2.948 34.1259 3.102C34.2359 3.24867 34.2909 3.37333 34.2909 3.476L33.8949 3.619V2.816C33.8949 2.62533 33.9572 2.46767 34.0819 2.343C34.2066 2.211 34.3642 2.145 34.5549 2.145ZM32.3329 7.04C32.6556 7.04 32.9379 6.95933 33.1799 6.798C33.4219 6.63667 33.6089 6.41667 33.7409 6.138C33.8802 5.85933 33.9499 5.54767 33.9499 5.203C33.9499 4.851 33.8802 4.53567 33.7409 4.257C33.6089 3.97833 33.4219 3.75833 33.1799 3.597C32.9379 3.43567 32.6556 3.355 32.3329 3.355C32.0176 3.355 31.7389 3.43567 31.4969 3.597C31.2549 3.75833 31.0642 3.97833 30.9249 4.257C30.7929 4.53567 30.7269 4.851 30.7269 5.203C30.7269 5.54767 30.7929 5.85933 30.9249 6.138C31.0642 6.41667 31.2549 6.63667 31.4969 6.798C31.7389 6.95933 32.0176 7.04 32.3329 7.04Z" fill="#333333"/>
<path d="M37.3041 8.14C37.1135 8.14 36.9558 8.07767 36.8311 7.953C36.7065 7.821 36.6441 7.65967 36.6441 7.469V2.926C36.6441 2.73533 36.7065 2.57767 36.8311 2.453C36.9558 2.321 37.1135 2.255 37.3041 2.255C37.4948 2.255 37.6525 2.321 37.7771 2.453C37.9018 2.57767 37.9641 2.73533 37.9641 2.926V3.96L37.8871 3.223C37.9678 3.047 38.0705 2.893 38.1951 2.761C38.3271 2.62167 38.4738 2.508 38.6351 2.42C38.7965 2.32467 38.9688 2.255 39.1521 2.211C39.3355 2.167 39.5188 2.145 39.7021 2.145C39.9221 2.145 40.1055 2.20733 40.2521 2.332C40.4061 2.45667 40.4831 2.60333 40.4831 2.772C40.4831 3.014 40.4208 3.19 40.2961 3.3C40.1715 3.40267 40.0358 3.454 39.8891 3.454C39.7498 3.454 39.6215 3.42833 39.5041 3.377C39.3941 3.32567 39.2658 3.3 39.1191 3.3C38.9871 3.3 38.8515 3.333 38.7121 3.399C38.5801 3.45767 38.4555 3.553 38.3381 3.685C38.2281 3.817 38.1365 3.982 38.0631 4.18C37.9971 4.37067 37.9641 4.598 37.9641 4.862V7.469C37.9641 7.65967 37.9018 7.821 37.7771 7.953C37.6525 8.07767 37.4948 8.14 37.3041 8.14Z" fill="#333333"/>
<path d="M45.9846 0C46.1753 0 46.3329 0.0623332 46.4576 0.187C46.5823 0.311666 46.6446 0.473 46.6446 0.671V7.469C46.6446 7.65967 46.5823 7.821 46.4576 7.953C46.3329 8.07767 46.1753 8.14 45.9846 8.14C45.7939 8.14 45.6363 8.07767 45.5116 7.953C45.3869 7.821 45.3246 7.65967 45.3246 7.469V6.93L45.5666 7.029C45.5666 7.12433 45.5153 7.24167 45.4126 7.381C45.3099 7.513 45.1706 7.645 44.9946 7.777C44.8186 7.909 44.6096 8.02267 44.3676 8.118C44.1329 8.206 43.8763 8.25 43.5976 8.25C43.0916 8.25 42.6333 8.12167 42.2226 7.865C41.8119 7.601 41.4856 7.24167 41.2436 6.787C41.0089 6.325 40.8916 5.797 40.8916 5.203C40.8916 4.60167 41.0089 4.07367 41.2436 3.619C41.4856 3.157 41.8083 2.79767 42.2116 2.541C42.6149 2.277 43.0623 2.145 43.5536 2.145C43.8689 2.145 44.1586 2.19267 44.4226 2.288C44.6866 2.38333 44.9139 2.50433 45.1046 2.651C45.3026 2.79767 45.4529 2.948 45.5556 3.102C45.6656 3.24867 45.7206 3.37333 45.7206 3.476L45.3246 3.619V0.671C45.3246 0.480333 45.3869 0.322666 45.5116 0.197999C45.6363 0.0659998 45.7939 0 45.9846 0ZM43.7626 7.04C44.0853 7.04 44.3676 6.95933 44.6096 6.798C44.8516 6.63667 45.0386 6.41667 45.1706 6.138C45.3099 5.85933 45.3796 5.54767 45.3796 5.203C45.3796 4.851 45.3099 4.53567 45.1706 4.257C45.0386 3.97833 44.8516 3.75833 44.6096 3.597C44.3676 3.43567 44.0853 3.355 43.7626 3.355C43.4473 3.355 43.1686 3.43567 42.9266 3.597C42.6846 3.75833 42.4939 3.97833 42.3546 4.257C42.2226 4.53567 42.1566 4.851 42.1566 5.203C42.1566 5.54767 42.2226 5.85933 42.3546 6.138C42.4939 6.41667 42.6846 6.63667 42.9266 6.798C43.1686 6.95933 43.4473 7.04 43.7626 7.04Z" fill="#333333"/>
<path d="M52.8918 2.145C53.0825 2.145 53.2402 2.20733 53.3648 2.332C53.4895 2.45667 53.5518 2.618 53.5518 2.816V7.469C53.5518 7.65967 53.4895 7.821 53.3648 7.953C53.2402 8.07767 53.0825 8.14 52.8918 8.14C52.7012 8.14 52.5435 8.07767 52.4188 7.953C52.2942 7.821 52.2318 7.65967 52.2318 7.469V6.93L52.4738 7.029C52.4738 7.12433 52.4225 7.24167 52.3198 7.381C52.2172 7.513 52.0778 7.645 51.9018 7.777C51.7258 7.909 51.5168 8.02267 51.2748 8.118C51.0402 8.206 50.7835 8.25 50.5048 8.25C49.9988 8.25 49.5405 8.12167 49.1298 7.865C48.7192 7.601 48.3928 7.24167 48.1508 6.787C47.9162 6.325 47.7988 5.797 47.7988 5.203C47.7988 4.60167 47.9162 4.07367 48.1508 3.619C48.3928 3.157 48.7155 2.79767 49.1188 2.541C49.5222 2.277 49.9695 2.145 50.4608 2.145C50.7762 2.145 51.0658 2.19267 51.3298 2.288C51.5938 2.38333 51.8212 2.50433 52.0118 2.651C52.2098 2.79767 52.3602 2.948 52.4628 3.102C52.5728 3.24867 52.6278 3.37333 52.6278 3.476L52.2318 3.619V2.816C52.2318 2.62533 52.2942 2.46767 52.4188 2.343C52.5435 2.211 52.7012 2.145 52.8918 2.145ZM50.6698 7.04C50.9925 7.04 51.2748 6.95933 51.5168 6.798C51.7588 6.63667 51.9458 6.41667 52.0778 6.138C52.2172 5.85933 52.2868 5.54767 52.2868 5.203C52.2868 4.851 52.2172 4.53567 52.0778 4.257C51.9458 3.97833 51.7588 3.75833 51.5168 3.597C51.2748 3.43567 50.9925 3.355 50.6698 3.355C50.3545 3.355 50.0758 3.43567 49.8338 3.597C49.5918 3.75833 49.4012 3.97833 49.2618 4.257C49.1298 4.53567 49.0638 4.851 49.0638 5.203C49.0638 5.54767 49.1298 5.85933 49.2618 6.138C49.4012 6.41667 49.5918 6.63667 49.8338 6.798C50.0758 6.95933 50.3545 7.04 50.6698 7.04Z" fill="#333333"/>
<path d="M55.6411 8.14C55.4504 8.14 55.2927 8.07767 55.1681 7.953C55.0434 7.821 54.9811 7.65967 54.9811 7.469V2.926C54.9811 2.73533 55.0434 2.57767 55.1681 2.453C55.2927 2.321 55.4504 2.255 55.6411 2.255C55.8317 2.255 55.9894 2.321 56.1141 2.453C56.2387 2.57767 56.3011 2.73533 56.3011 2.926V3.96L56.2241 3.223C56.3047 3.047 56.4074 2.893 56.5321 2.761C56.6641 2.62167 56.8107 2.508 56.9721 2.42C57.1334 2.32467 57.3057 2.255 57.4891 2.211C57.6724 2.167 57.8557 2.145 58.0391 2.145C58.2591 2.145 58.4424 2.20733 58.5891 2.332C58.7431 2.45667 58.8201 2.60333 58.8201 2.772C58.8201 3.014 58.7577 3.19 58.6331 3.3C58.5084 3.40267 58.3727 3.454 58.2261 3.454C58.0867 3.454 57.9584 3.42833 57.8411 3.377C57.7311 3.32567 57.6027 3.3 57.4561 3.3C57.3241 3.3 57.1884 3.333 57.0491 3.399C56.9171 3.45767 56.7924 3.553 56.6751 3.685C56.5651 3.817 56.4734 3.982 56.4001 4.18C56.3341 4.37067 56.3011 4.598 56.3011 4.862V7.469C56.3011 7.65967 56.2387 7.821 56.1141 7.953C55.9894 8.07767 55.8317 8.14 55.6411 8.14Z" fill="#333333"/>
<path d="M26.7264 14.19C27.4304 14.19 27.9548 14.355 28.2994 14.685C28.6441 15.015 28.8164 15.5027 28.8164 16.148C28.8164 16.4927 28.7321 16.797 28.5634 17.061C28.3948 17.3177 28.1454 17.5193 27.8154 17.666C27.4854 17.8053 27.0784 17.875 26.5944 17.875L26.6384 17.38C26.8658 17.38 27.1261 17.413 27.4194 17.479C27.7128 17.5377 27.9951 17.6477 28.2664 17.809C28.5451 17.963 28.7724 18.183 28.9484 18.469C29.1318 18.7477 29.2234 19.107 29.2234 19.547C29.2234 20.031 29.1428 20.427 28.9814 20.735C28.8274 21.043 28.6221 21.2813 28.3654 21.45C28.1088 21.6187 27.8338 21.736 27.5404 21.802C27.2471 21.8607 26.9648 21.89 26.6934 21.89H23.9544C23.7638 21.89 23.6024 21.8277 23.4704 21.703C23.3458 21.571 23.2834 21.4097 23.2834 21.219V14.861C23.2834 14.6703 23.3458 14.5127 23.4704 14.388C23.6024 14.256 23.7638 14.19 23.9544 14.19H26.7264ZM26.5284 15.488H24.5704L24.7134 15.312V17.303L24.5814 17.204H26.5614C26.7741 17.204 26.9648 17.1343 27.1334 16.995C27.3021 16.8557 27.3864 16.654 27.3864 16.39C27.3864 16.0747 27.3058 15.8473 27.1444 15.708C26.9904 15.5613 26.7851 15.488 26.5284 15.488ZM26.6164 18.502H24.6144L24.7134 18.414V20.735L24.6034 20.625H26.6934C27.0308 20.625 27.2984 20.537 27.4964 20.361C27.6944 20.1777 27.7934 19.9063 27.7934 19.547C27.7934 19.217 27.7274 18.9787 27.5954 18.832C27.4634 18.6853 27.3058 18.5937 27.1224 18.557C26.9391 18.5203 26.7704 18.502 26.6164 18.502Z" fill="#333333"/>
<path d="M31.6244 21.219C31.6244 21.4097 31.5621 21.571 31.4374 21.703C31.3128 21.8277 31.1551 21.89 30.9644 21.89C30.7738 21.89 30.6161 21.8277 30.4914 21.703C30.3668 21.571 30.3044 21.4097 30.3044 21.219V16.676C30.3044 16.4853 30.3668 16.3277 30.4914 16.203C30.6161 16.071 30.7738 16.005 30.9644 16.005C31.1551 16.005 31.3128 16.071 31.4374 16.203C31.5621 16.3277 31.6244 16.4853 31.6244 16.676V21.219ZM30.9534 15.29C30.7041 15.29 30.5281 15.2497 30.4254 15.169C30.3228 15.0883 30.2714 14.9453 30.2714 14.74V14.531C30.2714 14.3183 30.3264 14.1753 30.4364 14.102C30.5538 14.0213 30.7298 13.981 30.9644 13.981C31.2211 13.981 31.4008 14.0213 31.5034 14.102C31.6061 14.1827 31.6574 14.3257 31.6574 14.531V14.74C31.6574 14.9527 31.6024 15.0993 31.4924 15.18C31.3824 15.2533 31.2028 15.29 30.9534 15.29Z" fill="#333333"/>
<path d="M33.7511 21.89C33.5604 21.89 33.4027 21.8277 33.2781 21.703C33.1534 21.571 33.0911 21.4097 33.0911 21.219V14.421C33.0911 14.2303 33.1534 14.0727 33.2781 13.948C33.4027 13.816 33.5604 13.75 33.7511 13.75C33.9417 13.75 34.0994 13.816 34.2241 13.948C34.3487 14.0727 34.4111 14.2303 34.4111 14.421V21.219C34.4111 21.4097 34.3487 21.571 34.2241 21.703C34.0994 21.8277 33.9417 21.89 33.7511 21.89ZM37.2491 16.005C37.4177 16.005 37.5644 16.0747 37.6891 16.214C37.8137 16.3533 37.8761 16.489 37.8761 16.621C37.8761 16.797 37.7881 16.962 37.6121 17.116L34.3011 20.163L34.2461 18.645L36.7651 16.214C36.9044 16.0747 37.0657 16.005 37.2491 16.005ZM37.4141 21.879C37.2234 21.879 37.0621 21.8057 36.9301 21.659L34.8951 19.503L35.8961 18.579L37.8761 20.735C38.0154 20.8817 38.0851 21.0467 38.0851 21.23C38.0851 21.4207 38.0081 21.5783 37.8541 21.703C37.7074 21.8203 37.5607 21.879 37.4141 21.879Z" fill="#333333"/>
<path d="M41.7687 22C41.1453 22 40.6027 21.8717 40.1407 21.615C39.686 21.351 39.334 20.9953 39.0847 20.548C38.8427 20.1007 38.7217 19.5947 38.7217 19.03C38.7217 18.37 38.8537 17.809 39.1177 17.347C39.389 16.8777 39.741 16.5183 40.1737 16.269C40.6063 16.0197 41.0647 15.895 41.5487 15.895C41.9227 15.895 42.2747 15.972 42.6047 16.126C42.942 16.28 43.239 16.4927 43.4957 16.764C43.7523 17.028 43.954 17.336 44.1007 17.688C44.2547 18.04 44.3317 18.414 44.3317 18.81C44.3243 18.986 44.2547 19.129 44.1227 19.239C43.9907 19.349 43.8367 19.404 43.6607 19.404H39.4587L39.1287 18.304H43.1657L42.9237 18.524V18.227C42.909 18.0143 42.832 17.8237 42.6927 17.655C42.5607 17.4863 42.392 17.3543 42.1867 17.259C41.9887 17.1563 41.776 17.105 41.5487 17.105C41.3287 17.105 41.1233 17.1343 40.9327 17.193C40.742 17.2517 40.577 17.3507 40.4377 17.49C40.2983 17.6293 40.1883 17.8163 40.1077 18.051C40.027 18.2857 39.9867 18.5827 39.9867 18.942C39.9867 19.338 40.0673 19.6753 40.2287 19.954C40.3973 20.2253 40.61 20.4343 40.8667 20.581C41.1307 20.7203 41.4093 20.79 41.7027 20.79C41.974 20.79 42.1903 20.768 42.3517 20.724C42.513 20.68 42.6413 20.6287 42.7367 20.57C42.8393 20.504 42.931 20.449 43.0117 20.405C43.1437 20.339 43.2683 20.306 43.3857 20.306C43.547 20.306 43.679 20.361 43.7817 20.471C43.8917 20.581 43.9467 20.7093 43.9467 20.856C43.9467 21.054 43.844 21.2337 43.6387 21.395C43.448 21.5563 43.1803 21.6993 42.8357 21.824C42.491 21.9413 42.1353 22 41.7687 22Z" fill="#333333"/>
<path d="M45.144 20.977C45.0706 20.8743 45.0376 20.7423 45.045 20.581C45.0523 20.4197 45.1476 20.2803 45.331 20.163C45.4483 20.0897 45.573 20.0603 45.705 20.075C45.837 20.0823 45.9653 20.1483 46.09 20.273C46.3026 20.4857 46.5263 20.6507 46.761 20.768C46.9956 20.8853 47.289 20.944 47.641 20.944C47.751 20.9367 47.872 20.922 48.004 20.9C48.136 20.8707 48.2496 20.812 48.345 20.724C48.4476 20.6287 48.499 20.4857 48.499 20.295C48.499 20.1337 48.444 20.0053 48.334 19.91C48.224 19.8147 48.0773 19.734 47.894 19.668C47.718 19.602 47.52 19.5397 47.3 19.481C47.0726 19.415 46.838 19.3417 46.596 19.261C46.3613 19.1803 46.145 19.0777 45.947 18.953C45.749 18.821 45.5876 18.6487 45.463 18.436C45.3383 18.2233 45.276 17.9557 45.276 17.633C45.276 17.2663 45.3786 16.9547 45.584 16.698C45.7893 16.4413 46.0533 16.2433 46.376 16.104C46.706 15.9647 47.0506 15.895 47.41 15.895C47.6373 15.895 47.8756 15.9243 48.125 15.983C48.3743 16.0343 48.6126 16.1223 48.84 16.247C49.0673 16.3643 49.258 16.522 49.412 16.72C49.4926 16.83 49.5403 16.962 49.555 17.116C49.5696 17.27 49.5 17.4093 49.346 17.534C49.236 17.622 49.1076 17.6623 48.961 17.655C48.8143 17.6403 48.6933 17.589 48.598 17.501C48.4733 17.3397 48.3046 17.2113 48.092 17.116C47.8866 17.0207 47.6483 16.973 47.377 16.973C47.267 16.973 47.146 16.9877 47.014 17.017C46.8893 17.039 46.7793 17.094 46.684 17.182C46.5886 17.2627 46.541 17.3947 46.541 17.578C46.541 17.7467 46.596 17.8823 46.706 17.985C46.816 18.0803 46.9626 18.161 47.146 18.227C47.3366 18.2857 47.5383 18.3443 47.751 18.403C47.971 18.4617 48.1946 18.5313 48.422 18.612C48.6493 18.6927 48.8583 18.799 49.049 18.931C49.2396 19.063 49.3936 19.2353 49.511 19.448C49.6283 19.6533 49.687 19.9173 49.687 20.24C49.687 20.614 49.577 20.933 49.357 21.197C49.137 21.461 48.862 21.6627 48.532 21.802C48.202 21.934 47.8646 22 47.52 22C47.0873 22 46.6546 21.9267 46.222 21.78C45.7893 21.626 45.43 21.3583 45.144 20.977Z" fill="#333333"/>
<path d="M17.4167 11.8067C17.4167 16.6162 13.5178 20.5151 8.70833 20.5151C3.89885 20.5151 0 16.6162 0 11.8067C0 6.99724 3.89885 3.09839 8.70833 3.09839C13.5178 3.09839 17.4167 6.99724 17.4167 11.8067Z" fill="#FF7640"/>
<path d="M8.72087 6.84009C9.28901 6.84009 9.83835 6.8756 10.3689 6.94661C10.9036 7.01345 11.3819 7.13043 11.8039 7.29753C12.23 7.46045 12.5788 7.68186 12.8503 7.96175C13.1261 8.24164 13.2869 8.59047 13.3328 9.00822L11.7036 9.45939C11.7036 9.20874 11.618 9.00404 11.4467 8.8453C11.2796 8.68237 11.0561 8.55496 10.7762 8.46305C10.5005 8.36697 10.183 8.30013 9.82373 8.26253C9.46864 8.22493 9.10102 8.20614 8.72087 8.20614C8.34907 8.20614 7.98353 8.22285 7.62427 8.25627C7.265 8.28969 6.94124 8.35235 6.65299 8.44425C6.36892 8.53616 6.13916 8.66357 5.9637 8.8265C5.78825 8.98942 5.70052 9.20039 5.70052 9.45939V10.9508H13.3328V14.1967C13.3328 14.4766 13.2702 14.7272 13.1449 14.9486C13.0237 15.1659 12.8545 15.356 12.6373 15.5189C12.4242 15.6776 12.1694 15.8134 11.8728 15.9262C11.5804 16.0348 11.2629 16.1225 10.9203 16.1894C10.5819 16.2562 10.2248 16.3043 9.8488 16.3335C9.47282 16.3627 9.09684 16.3774 8.72087 16.3774C8.33653 16.3774 7.95847 16.3627 7.58667 16.3335C7.21487 16.3043 6.86187 16.2562 6.52767 16.1894C6.19347 16.1225 5.88224 16.0348 5.59399 15.9262C5.30992 15.8134 5.05927 15.6776 4.84204 15.5189C4.62481 15.356 4.44935 15.1659 4.31567 14.9486C4.18199 14.7314 4.10053 14.4808 4.07129 14.1967L5.70052 13.7455C5.70052 14.0045 5.78825 14.2155 5.9637 14.3784C6.13916 14.5413 6.36892 14.6688 6.65299 14.7607C6.94124 14.8526 7.265 14.9152 7.62427 14.9486C7.98353 14.9821 8.34907 14.9988 8.72087 14.9988C9.10102 14.9988 9.46864 14.9821 9.82373 14.9486C10.183 14.9111 10.5005 14.8463 10.7762 14.7544C11.0561 14.6583 11.2796 14.5288 11.4467 14.3659C11.618 14.203 11.7036 13.9962 11.7036 13.7455V12.2166H4.07129V9.00822C4.07129 8.72833 4.13186 8.48185 4.25301 8.2688C4.37834 8.05157 4.54753 7.86358 4.76058 7.70483C4.97781 7.54191 5.23473 7.40614 5.53133 7.29753C5.82794 7.18473 6.14752 7.09492 6.49007 7.02808C6.83681 6.96124 7.19816 6.91319 7.57414 6.88395C7.95429 6.85471 8.33653 6.84009 8.72087 6.84009Z" fill="white"/>
</svg>
