<svg width="196" height="42" viewBox="0 0 196 42" fill="none" xmlns="http://www.w3.org/2000/svg">
<path d="M56.2 30.24C55.08 30.24 54.072 30.104 53.176 29.832C52.28 29.544 51.424 29.048 50.608 28.344C50.4 28.168 50.24 27.968 50.128 27.744C50.016 27.52 49.96 27.296 49.96 27.072C49.96 26.704 50.088 26.384 50.344 26.112C50.616 25.824 50.952 25.68 51.352 25.68C51.656 25.68 51.928 25.776 52.168 25.968C52.776 26.464 53.376 26.84 53.968 27.096C54.576 27.352 55.32 27.48 56.2 27.48C56.792 27.48 57.336 27.392 57.832 27.216C58.328 27.024 58.728 26.776 59.032 26.472C59.336 26.152 59.488 25.792 59.488 25.392C59.488 24.912 59.344 24.504 59.056 24.168C58.768 23.832 58.328 23.552 57.736 23.328C57.144 23.088 56.392 22.904 55.48 22.776C54.616 22.648 53.856 22.456 53.2 22.2C52.544 21.928 51.992 21.592 51.544 21.192C51.112 20.776 50.784 20.296 50.56 19.752C50.336 19.192 50.224 18.568 50.224 17.88C50.224 16.84 50.488 15.952 51.016 15.216C51.56 14.48 52.288 13.92 53.2 13.536C54.112 13.152 55.12 12.96 56.224 12.96C57.264 12.96 58.224 13.12 59.104 13.44C60 13.744 60.728 14.136 61.288 14.616C61.752 14.984 61.984 15.408 61.984 15.888C61.984 16.24 61.848 16.56 61.576 16.848C61.304 17.136 60.984 17.28 60.616 17.28C60.376 17.28 60.16 17.208 59.968 17.064C59.712 16.84 59.368 16.632 58.936 16.44C58.504 16.232 58.048 16.064 57.568 15.936C57.088 15.792 56.64 15.72 56.224 15.72C55.536 15.72 54.952 15.808 54.472 15.984C54.008 16.16 53.656 16.4 53.416 16.704C53.176 17.008 53.056 17.36 53.056 17.76C53.056 18.24 53.192 18.64 53.464 18.96C53.752 19.264 54.16 19.512 54.688 19.704C55.216 19.88 55.848 20.04 56.584 20.184C57.544 20.36 58.384 20.568 59.104 20.808C59.84 21.048 60.448 21.36 60.928 21.744C61.408 22.112 61.768 22.584 62.008 23.16C62.248 23.72 62.368 24.408 62.368 25.224C62.368 26.264 62.08 27.16 61.504 27.912C60.928 28.664 60.168 29.24 59.224 29.64C58.296 30.04 57.288 30.24 56.2 30.24ZM75.3923 16.92C75.8083 16.92 76.1523 17.056 76.4243 17.328C76.6963 17.6 76.8323 17.952 76.8323 18.384V28.536C76.8323 28.952 76.6963 29.304 76.4243 29.592C76.1523 29.864 75.8083 30 75.3923 30C74.9763 30 74.6323 29.864 74.3603 29.592C74.0883 29.304 73.9523 28.952 73.9523 28.536V27.36L74.4803 27.576C74.4803 27.784 74.3683 28.04 74.1443 28.344C73.9203 28.632 73.6163 28.92 73.2323 29.208C72.8483 29.496 72.3923 29.744 71.8643 29.952C71.3523 30.144 70.7923 30.24 70.1843 30.24C69.0803 30.24 68.0803 29.96 67.1843 29.4C66.2883 28.824 65.5763 28.04 65.0483 27.048C64.5363 26.04 64.2803 24.888 64.2803 23.592C64.2803 22.28 64.5363 21.128 65.0483 20.136C65.5763 19.128 66.2803 18.344 67.1603 17.784C68.0403 17.208 69.0163 16.92 70.0883 16.92C70.7763 16.92 71.4083 17.024 71.9843 17.232C72.5603 17.44 73.0563 17.704 73.4723 18.024C73.9043 18.344 74.2323 18.672 74.4563 19.008C74.6963 19.328 74.8163 19.6 74.8163 19.824L73.9523 20.136V18.384C73.9523 17.968 74.0883 17.624 74.3603 17.352C74.6323 17.064 74.9763 16.92 75.3923 16.92ZM70.5443 27.6C71.2483 27.6 71.8643 27.424 72.3923 27.072C72.9203 26.72 73.3283 26.24 73.6163 25.632C73.9203 25.024 74.0723 24.344 74.0723 23.592C74.0723 22.824 73.9203 22.136 73.6163 21.528C73.3283 20.92 72.9203 20.44 72.3923 20.088C71.8643 19.736 71.2483 19.56 70.5443 19.56C69.8563 19.56 69.2483 19.736 68.7203 20.088C68.1923 20.44 67.7763 20.92 67.4723 21.528C67.1843 22.136 67.0403 22.824 67.0403 23.592C67.0403 24.344 67.1843 25.024 67.4723 25.632C67.7763 26.24 68.1923 26.72 68.7203 27.072C69.2483 27.424 69.8563 27.6 70.5443 27.6ZM81.3906 30C80.9746 30 80.6306 29.864 80.3586 29.592C80.0866 29.304 79.9506 28.952 79.9506 28.536V18.624C79.9506 18.208 80.0866 17.864 80.3586 17.592C80.6306 17.304 80.9746 17.16 81.3906 17.16C81.8066 17.16 82.1506 17.304 82.4226 17.592C82.6946 17.864 82.8306 18.208 82.8306 18.624V20.88L82.6626 19.272C82.8386 18.888 83.0626 18.552 83.3346 18.264C83.6226 17.96 83.9426 17.712 84.2946 17.52C84.6466 17.312 85.0226 17.16 85.4226 17.064C85.8226 16.968 86.2226 16.92 86.6226 16.92C87.1026 16.92 87.5026 17.056 87.8226 17.328C88.1586 17.6 88.3266 17.92 88.3266 18.288C88.3266 18.816 88.1906 19.2 87.9186 19.44C87.6466 19.664 87.3506 19.776 87.0306 19.776C86.7266 19.776 86.4466 19.72 86.1906 19.608C85.9506 19.496 85.6706 19.44 85.3506 19.44C85.0626 19.44 84.7666 19.512 84.4626 19.656C84.1746 19.784 83.9026 19.992 83.6466 20.28C83.4066 20.568 83.2066 20.928 83.0466 21.36C82.9026 21.776 82.8306 22.272 82.8306 22.848V28.536C82.8306 28.952 82.6946 29.304 82.4226 29.592C82.1506 29.864 81.8066 30 81.3906 30ZM100.33 12.24C100.746 12.24 101.09 12.376 101.362 12.648C101.634 12.92 101.77 13.272 101.77 13.704V28.536C101.77 28.952 101.634 29.304 101.362 29.592C101.09 29.864 100.746 30 100.33 30C99.9138 30 99.5698 29.864 99.2978 29.592C99.0258 29.304 98.8898 28.952 98.8898 28.536V27.36L99.4178 27.576C99.4178 27.784 99.3058 28.04 99.0818 28.344C98.8578 28.632 98.5538 28.92 98.1698 29.208C97.7858 29.496 97.3298 29.744 96.8018 29.952C96.2898 30.144 95.7298 30.24 95.1218 30.24C94.0178 30.24 93.0178 29.96 92.1218 29.4C91.2258 28.824 90.5138 28.04 89.9858 27.048C89.4738 26.04 89.2178 24.888 89.2178 23.592C89.2178 22.28 89.4738 21.128 89.9858 20.136C90.5138 19.128 91.2178 18.344 92.0978 17.784C92.9778 17.208 93.9538 16.92 95.0258 16.92C95.7138 16.92 96.3458 17.024 96.9218 17.232C97.4978 17.44 97.9938 17.704 98.4098 18.024C98.8418 18.344 99.1698 18.672 99.3938 19.008C99.6338 19.328 99.7538 19.6 99.7538 19.824L98.8898 20.136V13.704C98.8898 13.288 99.0258 12.944 99.2978 12.672C99.5698 12.384 99.9138 12.24 100.33 12.24ZM95.4818 27.6C96.1858 27.6 96.8018 27.424 97.3298 27.072C97.8578 26.72 98.2658 26.24 98.5538 25.632C98.8578 25.024 99.0098 24.344 99.0098 23.592C99.0098 22.824 98.8578 22.136 98.5538 21.528C98.2658 20.92 97.8578 20.44 97.3298 20.088C96.8018 19.736 96.1858 19.56 95.4818 19.56C94.7938 19.56 94.1858 19.736 93.6578 20.088C93.1298 20.44 92.7138 20.92 92.4098 21.528C92.1218 22.136 91.9778 22.824 91.9778 23.592C91.9778 24.344 92.1218 25.024 92.4098 25.632C92.7138 26.24 93.1298 26.72 93.6578 27.072C94.1858 27.424 94.7938 27.6 95.4818 27.6ZM115.4 16.92C115.816 16.92 116.16 17.056 116.432 17.328C116.704 17.6 116.84 17.952 116.84 18.384V28.536C116.84 28.952 116.704 29.304 116.432 29.592C116.16 29.864 115.816 30 115.4 30C114.984 30 114.64 29.864 114.368 29.592C114.096 29.304 113.96 28.952 113.96 28.536V27.36L114.488 27.576C114.488 27.784 114.376 28.04 114.152 28.344C113.928 28.632 113.624 28.92 113.24 29.208C112.856 29.496 112.4 29.744 111.872 29.952C111.36 30.144 110.8 30.24 110.192 30.24C109.088 30.24 108.088 29.96 107.192 29.4C106.296 28.824 105.584 28.04 105.056 27.048C104.544 26.04 104.288 24.888 104.288 23.592C104.288 22.28 104.544 21.128 105.056 20.136C105.584 19.128 106.288 18.344 107.168 17.784C108.048 17.208 109.024 16.92 110.096 16.92C110.784 16.92 111.416 17.024 111.992 17.232C112.568 17.44 113.064 17.704 113.48 18.024C113.912 18.344 114.24 18.672 114.464 19.008C114.704 19.328 114.824 19.6 114.824 19.824L113.96 20.136V18.384C113.96 17.968 114.096 17.624 114.368 17.352C114.64 17.064 114.984 16.92 115.4 16.92ZM110.552 27.6C111.256 27.6 111.872 27.424 112.4 27.072C112.928 26.72 113.336 26.24 113.624 25.632C113.928 25.024 114.08 24.344 114.08 23.592C114.08 22.824 113.928 22.136 113.624 21.528C113.336 20.92 112.928 20.44 112.4 20.088C111.872 19.736 111.256 19.56 110.552 19.56C109.864 19.56 109.256 19.736 108.728 20.088C108.2 20.44 107.784 20.92 107.48 21.528C107.192 22.136 107.048 22.824 107.048 23.592C107.048 24.344 107.192 25.024 107.48 25.632C107.784 26.24 108.2 26.72 108.728 27.072C109.256 27.424 109.864 27.6 110.552 27.6ZM121.398 30C120.982 30 120.638 29.864 120.366 29.592C120.094 29.304 119.958 28.952 119.958 28.536V18.624C119.958 18.208 120.094 17.864 120.366 17.592C120.638 17.304 120.982 17.16 121.398 17.16C121.814 17.16 122.158 17.304 122.43 17.592C122.702 17.864 122.838 18.208 122.838 18.624V20.88L122.67 19.272C122.846 18.888 123.07 18.552 123.342 18.264C123.63 17.96 123.95 17.712 124.302 17.52C124.654 17.312 125.03 17.16 125.43 17.064C125.83 16.968 126.23 16.92 126.63 16.92C127.11 16.92 127.51 17.056 127.83 17.328C128.166 17.6 128.334 17.92 128.334 18.288C128.334 18.816 128.198 19.2 127.926 19.44C127.654 19.664 127.358 19.776 127.038 19.776C126.734 19.776 126.454 19.72 126.198 19.608C125.958 19.496 125.678 19.44 125.358 19.44C125.07 19.44 124.774 19.512 124.47 19.656C124.182 19.784 123.91 19.992 123.654 20.28C123.414 20.568 123.214 20.928 123.054 21.36C122.91 21.776 122.838 22.272 122.838 22.848V28.536C122.838 28.952 122.702 29.304 122.43 29.592C122.158 29.864 121.814 30 121.398 30ZM144.843 13.2C146.379 13.2 147.523 13.56 148.275 14.28C149.027 15 149.403 16.064 149.403 17.472C149.403 18.224 149.219 18.888 148.851 19.464C148.483 20.024 147.939 20.464 147.219 20.784C146.499 21.088 145.611 21.24 144.555 21.24L144.651 20.16C145.147 20.16 145.715 20.232 146.355 20.376C146.995 20.504 147.611 20.744 148.203 21.096C148.811 21.432 149.307 21.912 149.691 22.536C150.091 23.144 150.291 23.928 150.291 24.888C150.291 25.944 150.115 26.808 149.763 27.48C149.427 28.152 148.979 28.672 148.419 29.04C147.859 29.408 147.259 29.664 146.619 29.808C145.979 29.936 145.363 30 144.771 30H138.795C138.379 30 138.027 29.864 137.739 29.592C137.467 29.304 137.331 28.952 137.331 28.536V14.664C137.331 14.248 137.467 13.904 137.739 13.632C138.027 13.344 138.379 13.2 138.795 13.2H144.843ZM144.411 16.032H140.139L140.451 15.648V19.992L140.163 19.776H144.483C144.947 19.776 145.363 19.624 145.731 19.32C146.099 19.016 146.283 18.576 146.283 18C146.283 17.312 146.107 16.816 145.755 16.512C145.419 16.192 144.971 16.032 144.411 16.032ZM144.603 22.608H140.235L140.451 22.416V27.48L140.211 27.24H144.771C145.507 27.24 146.091 27.048 146.523 26.664C146.955 26.264 147.171 25.672 147.171 24.888C147.171 24.168 147.027 23.648 146.739 23.328C146.451 23.008 146.107 22.808 145.707 22.728C145.307 22.648 144.939 22.608 144.603 22.608ZM155.53 28.536C155.53 28.952 155.394 29.304 155.122 29.592C154.85 29.864 154.506 30 154.09 30C153.674 30 153.33 29.864 153.058 29.592C152.786 29.304 152.65 28.952 152.65 28.536V18.624C152.65 18.208 152.786 17.864 153.058 17.592C153.33 17.304 153.674 17.16 154.09 17.16C154.506 17.16 154.85 17.304 155.122 17.592C155.394 17.864 155.53 18.208 155.53 18.624V28.536ZM154.066 15.6C153.522 15.6 153.138 15.512 152.914 15.336C152.69 15.16 152.578 14.848 152.578 14.4V13.944C152.578 13.48 152.698 13.168 152.938 13.008C153.194 12.832 153.578 12.744 154.09 12.744C154.65 12.744 155.042 12.832 155.266 13.008C155.49 13.184 155.602 13.496 155.602 13.944V14.4C155.602 14.864 155.482 15.184 155.242 15.36C155.002 15.52 154.61 15.6 154.066 15.6ZM160.17 30C159.754 30 159.41 29.864 159.138 29.592C158.866 29.304 158.73 28.952 158.73 28.536V13.704C158.73 13.288 158.866 12.944 159.138 12.672C159.41 12.384 159.754 12.24 160.17 12.24C160.586 12.24 160.93 12.384 161.202 12.672C161.474 12.944 161.61 13.288 161.61 13.704V28.536C161.61 28.952 161.474 29.304 161.202 29.592C160.93 29.864 160.586 30 160.17 30ZM167.802 17.16C168.17 17.16 168.49 17.312 168.762 17.616C169.034 17.92 169.17 18.216 169.17 18.504C169.17 18.888 168.978 19.248 168.594 19.584L161.37 26.232L161.25 22.92L166.746 17.616C167.05 17.312 167.402 17.16 167.802 17.16ZM168.162 29.976C167.746 29.976 167.394 29.816 167.106 29.496L162.666 24.792L164.85 22.776L169.17 27.48C169.474 27.8 169.626 28.16 169.626 28.56C169.626 28.976 169.458 29.32 169.122 29.592C168.802 29.848 168.482 29.976 168.162 29.976ZM177.663 30.24C176.303 30.24 175.119 29.96 174.111 29.4C173.119 28.824 172.351 28.048 171.807 27.072C171.279 26.096 171.015 24.992 171.015 23.76C171.015 22.32 171.303 21.096 171.879 20.088C172.471 19.064 173.239 18.28 174.183 17.736C175.127 17.192 176.127 16.92 177.183 16.92C177.999 16.92 178.767 17.088 179.487 17.424C180.223 17.76 180.871 18.224 181.431 18.816C181.991 19.392 182.431 20.064 182.751 20.832C183.087 21.6 183.255 22.416 183.255 23.28C183.239 23.664 183.087 23.976 182.799 24.216C182.511 24.456 182.175 24.576 181.791 24.576H172.623L171.903 22.176H180.711L180.183 22.656V22.008C180.151 21.544 179.983 21.128 179.679 20.76C179.391 20.392 179.023 20.104 178.575 19.896C178.143 19.672 177.679 19.56 177.183 19.56C176.703 19.56 176.255 19.624 175.839 19.752C175.423 19.88 175.063 20.096 174.759 20.4C174.455 20.704 174.215 21.112 174.039 21.624C173.863 22.136 173.775 22.784 173.775 23.568C173.775 24.432 173.951 25.168 174.303 25.776C174.671 26.368 175.135 26.824 175.695 27.144C176.271 27.448 176.879 27.6 177.519 27.6C178.111 27.6 178.583 27.552 178.935 27.456C179.287 27.36 179.567 27.248 179.775 27.12C179.999 26.976 180.199 26.856 180.375 26.76C180.663 26.616 180.935 26.544 181.191 26.544C181.543 26.544 181.831 26.664 182.055 26.904C182.295 27.144 182.415 27.424 182.415 27.744C182.415 28.176 182.191 28.568 181.743 28.92C181.327 29.272 180.743 29.584 179.991 29.856C179.239 30.112 178.463 30.24 177.663 30.24ZM185.027 28.008C184.867 27.784 184.795 27.496 184.811 27.144C184.827 26.792 185.035 26.488 185.435 26.232C185.691 26.072 185.963 26.008 186.251 26.04C186.539 26.056 186.819 26.2 187.091 26.472C187.555 26.936 188.043 27.296 188.555 27.552C189.067 27.808 189.707 27.936 190.475 27.936C190.715 27.92 190.979 27.888 191.267 27.84C191.555 27.776 191.803 27.648 192.011 27.456C192.235 27.248 192.347 26.936 192.347 26.52C192.347 26.168 192.227 25.888 191.987 25.68C191.747 25.472 191.427 25.296 191.027 25.152C190.643 25.008 190.211 24.872 189.731 24.744C189.235 24.6 188.723 24.44 188.195 24.264C187.683 24.088 187.211 23.864 186.779 23.592C186.347 23.304 185.995 22.928 185.723 22.464C185.451 22 185.315 21.416 185.315 20.712C185.315 19.912 185.539 19.232 185.987 18.672C186.435 18.112 187.011 17.68 187.715 17.376C188.435 17.072 189.187 16.92 189.971 16.92C190.467 16.92 190.987 16.984 191.531 17.112C192.075 17.224 192.595 17.416 193.091 17.688C193.587 17.944 194.003 18.288 194.339 18.72C194.515 18.96 194.619 19.248 194.651 19.584C194.683 19.92 194.531 20.224 194.195 20.496C193.955 20.688 193.675 20.776 193.355 20.76C193.035 20.728 192.771 20.616 192.563 20.424C192.291 20.072 191.923 19.792 191.459 19.584C191.011 19.376 190.491 19.272 189.899 19.272C189.659 19.272 189.395 19.304 189.107 19.368C188.835 19.416 188.595 19.536 188.387 19.728C188.179 19.904 188.075 20.192 188.075 20.592C188.075 20.96 188.195 21.256 188.435 21.48C188.675 21.688 188.995 21.864 189.395 22.008C189.811 22.136 190.251 22.264 190.715 22.392C191.195 22.52 191.683 22.672 192.179 22.848C192.675 23.024 193.131 23.256 193.547 23.544C193.963 23.832 194.299 24.208 194.555 24.672C194.811 25.12 194.939 25.696 194.939 26.4C194.939 27.216 194.699 27.912 194.219 28.488C193.739 29.064 193.139 29.504 192.419 29.808C191.699 30.096 190.963 30.24 190.211 30.24C189.267 30.24 188.323 30.08 187.379 29.76C186.435 29.424 185.651 28.84 185.027 28.008Z" fill="#333333"/>
<circle cx="19" cy="23" r="19" fill="#FF7640"/>
<path d="M19.0273 12.1641C20.2669 12.1641 21.4655 12.2415 22.623 12.3965C23.7897 12.5423 24.8333 12.7975 25.7539 13.1621C26.6836 13.5176 27.4447 14.0007 28.0371 14.6113C28.6387 15.222 28.9896 15.9831 29.0898 16.8945L25.5352 17.8789C25.5352 17.332 25.3483 16.8854 24.9746 16.5391C24.61 16.1836 24.1224 15.9056 23.5117 15.7051C22.9102 15.4954 22.2174 15.3496 21.4336 15.2676C20.6589 15.1855 19.8568 15.1445 19.0273 15.1445C18.2161 15.1445 17.4186 15.181 16.6348 15.2539C15.8509 15.3268 15.1445 15.4635 14.5156 15.6641C13.8958 15.8646 13.3945 16.1426 13.0117 16.498C12.6289 16.8535 12.4375 17.3138 12.4375 17.8789V21.1328H29.0898V28.2148C29.0898 28.8255 28.9531 29.3724 28.6797 29.8555C28.4154 30.3294 28.0462 30.7441 27.5723 31.0996C27.1074 31.446 26.5514 31.7422 25.9043 31.9883C25.2663 32.2253 24.5736 32.4167 23.8262 32.5625C23.0879 32.7083 22.3086 32.8132 21.4883 32.877C20.668 32.9408 19.8477 32.9727 19.0273 32.9727C18.1888 32.9727 17.3639 32.9408 16.5527 32.877C15.7415 32.8132 14.9714 32.7083 14.2422 32.5625C13.513 32.4167 12.834 32.2253 12.2051 31.9883C11.5853 31.7422 11.0384 31.446 10.5645 31.0996C10.0905 30.7441 9.70768 30.3294 9.41602 29.8555C9.12435 29.3815 8.94661 28.8346 8.88281 28.2148L12.4375 27.2305C12.4375 27.7956 12.6289 28.2559 13.0117 28.6113C13.3945 28.9668 13.8958 29.2448 14.5156 29.4453C15.1445 29.6458 15.8509 29.7826 16.6348 29.8555C17.4186 29.9284 18.2161 29.9648 19.0273 29.9648C19.8568 29.9648 20.6589 29.9284 21.4336 29.8555C22.2174 29.7734 22.9102 29.6322 23.5117 29.4316C24.1224 29.222 24.61 28.9395 24.9746 28.584C25.3483 28.2285 25.5352 27.7773 25.5352 27.2305V23.8945H8.88281V16.8945C8.88281 16.2839 9.01497 15.7461 9.2793 15.2812C9.55273 14.8073 9.92188 14.3971 10.3867 14.0508C10.8607 13.6953 11.4212 13.3991 12.0684 13.1621C12.7155 12.916 13.4128 12.7201 14.1602 12.5742C14.9167 12.4284 15.7051 12.3236 16.5254 12.2598C17.3548 12.196 18.1888 12.1641 19.0273 12.1641Z" fill="white"/>
</svg>
